<svg width="248" height="23" viewBox="0 0 248 23" fill="none" xmlns="http://www.w3.org/2000/svg">
<g clip-path="url(#clip0_1_9)">
<path d="M247.986 9.64988C247.986 9.09832 247.938 8.3789 247.842 7.51559C247.77 6.65228 247.65 5.88489 247.506 5.21343C247.338 4.44604 246.978 3.82254 246.427 3.29496C245.875 2.76739 245.228 2.47962 244.484 2.38369C242.182 2.1199 238.681 2 234.005 2C229.329 2 225.827 2.1199 223.525 2.38369C222.782 2.47962 222.134 2.76739 221.583 3.29496C221.031 3.82254 220.671 4.44604 220.504 5.21343C220.336 5.88489 220.24 6.65228 220.144 7.51559C220.072 8.3789 220.024 9.09832 220 9.64988C220 10.2254 220 10.9928 220 12C220 13.0072 220 13.7746 220.024 14.3501C220.024 14.9017 220.072 15.6211 220.168 16.4844C220.216 17.3477 220.336 18.1151 220.48 18.7866C220.647 19.554 221.007 20.1775 221.559 20.705C222.11 21.2326 222.758 21.5204 223.501 21.6163C225.803 21.8801 229.305 22 233.981 22C238.657 22 242.158 21.8801 244.46 21.6163C245.204 21.5444 245.851 21.2326 246.403 20.705C246.954 20.1775 247.314 19.554 247.482 18.7866C247.65 18.1151 247.746 17.3477 247.842 16.4844C247.914 15.6211 247.962 14.9017 247.986 14.3501C247.986 13.7986 248.01 13.0072 248.01 12C248.01 10.9928 248.01 10.2254 247.986 9.64988ZM239.544 12.8393L231.535 17.8513C231.391 17.9472 231.223 18.0192 231.007 18.0192C230.839 18.0192 230.695 17.9712 230.528 17.8993C230.192 17.7074 230 17.4197 230 17.012V7.01199C230 6.60432 230.168 6.31655 230.528 6.1247C230.887 5.93285 231.223 5.95683 231.535 6.14868L235.54 8.65468L239.544 11.1607C239.856 11.3285 240.024 11.6163 240.024 12C240 12.3837 239.856 12.6715 239.544 12.8393Z" fill="black"/>
</g>
<g clip-path="url(#clip1_1_9)">
<path d="M167.216 7.14941H162.276V22H167.216V7.14941Z" fill="black"/>
<path d="M183.438 8.50571C182.404 7.37928 181.025 6.80457 179.325 6.80457C178.704 6.80457 178.13 6.87353 177.601 7.03445C177.096 7.19537 176.659 7.40227 176.292 7.67813C175.947 7.95399 175.648 8.20686 175.442 8.45974C175.235 8.68962 175.051 8.9425 174.867 9.24135V7.1264H169.95L169.973 7.83905C169.973 8.32181 169.996 9.79307 169.996 12.2758C169.996 14.7586 169.996 17.977 169.973 21.977H174.89V13.7011C174.89 13.1954 174.936 12.7816 175.051 12.4827C175.258 11.977 175.579 11.5402 175.993 11.1954C176.407 10.8505 176.935 10.6896 177.578 10.6896C178.429 10.6896 179.072 10.9885 179.463 11.5862C179.876 12.1839 180.06 13.0115 180.06 14.0459V21.977H184.977V13.4712C185 11.2873 184.495 9.63215 183.438 8.50571Z" fill="black"/>
<path d="M164.78 0C163.953 0 163.287 0.252874 162.781 0.735632C162.253 1.21839 162 1.81609 162 2.55172C162 3.28736 162.253 3.88506 162.758 4.39081C163.264 4.87356 163.907 5.12644 164.734 5.12644H164.757C165.607 5.12644 166.274 4.87356 166.779 4.39081C167.285 3.90805 167.537 3.28736 167.537 2.55172C167.537 1.81609 167.262 1.1954 166.779 0.712644C166.274 0.252874 165.607 0 164.78 0Z" fill="black"/>
</g>
<g clip-path="url(#clip2_1_9)">
<path d="M24.9991 4.3741C24.0254 4.78177 23.0273 5.04556 22.0536 5.16547C23.1734 4.51799 23.9037 3.58273 24.3175 2.38369C23.2951 2.95923 22.1997 3.36691 21.0555 3.58273C20.0332 2.52758 18.7917 2 17.3068 2C15.8949 2 14.6778 2.5036 13.6797 3.48681C12.6816 4.47002 12.1704 5.66906 12.1704 7.05995C12.1704 7.44365 12.2191 7.82734 12.2922 8.21103C10.1987 8.11511 8.22692 7.58753 6.40122 6.65228C4.57551 5.71703 3.01757 4.47002 1.72741 2.93525C1.2649 3.72662 1.02147 4.56595 1.02147 5.47722C1.02147 6.34053 1.21621 7.15588 1.63004 7.8753C2.04386 8.6187 2.60375 9.21823 3.28535 9.67386C2.45769 9.64988 1.67872 9.43405 0.972784 9.02638V9.09832C0.972784 10.3213 1.36227 11.3765 2.14124 12.3118C2.9202 13.223 3.89391 13.8225 5.08671 14.0623C4.64854 14.1823 4.18603 14.2302 3.74786 14.2302C3.45574 14.2302 3.13929 14.2062 2.77415 14.1583C3.0906 15.1655 3.69917 16.0048 4.57551 16.6523C5.45185 17.2998 6.4499 17.6355 7.56967 17.6595C5.71962 19.0983 3.57746 19.8177 1.21621 19.8177C0.753699 19.8177 0.339873 19.7938 -0.0252686 19.7458C2.36032 21.2566 4.98934 22 7.83744 22C9.66314 22 11.3671 21.7122 12.9738 21.1607C14.5804 20.5851 15.9436 19.8417 17.0633 18.8825C18.1831 17.9233 19.1812 16.8201 19.9845 15.5971C20.8121 14.3501 21.4207 13.0552 21.8102 11.7122C22.1997 10.3693 22.4187 9.0024 22.4187 7.65947C22.4187 7.3717 22.4187 7.15588 22.3944 7.01199C23.4411 6.26858 24.2931 5.40528 24.9991 4.3741Z" fill="black"/>
</g>
<g clip-path="url(#clip3_1_9)">
<path d="M66.6467 7.21043V5.3054C66.6467 5.01862 66.6667 4.7933 66.6866 4.64991C66.7066 4.48603 66.7665 4.34264 66.8663 4.19925C66.9661 4.05587 67.1058 3.95344 67.3054 3.89199C67.505 3.83054 67.7844 3.81006 68.1238 3.81006H69.98V0H67.006C65.2894 0 64.0719 0.409683 63.3333 1.24953C62.5948 2.08939 62.2156 3.29795 62.2156 4.93669V7.21043H60V11H62.2156V22H66.6467V11H69.6008L70 7.21043H66.6467Z" fill="black"/>
</g>
<g clip-path="url(#clip4_1_9)">
<path d="M120.93 1H111.07C107.717 1 105 3.71746 105 7.06953V16.9305C105 20.2825 107.717 23 111.07 23H120.93C124.283 23 127 20.2825 127 16.9305V7.06953C127 3.71746 124.283 1 120.93 1ZM125.047 16.9305C125.047 19.2086 123.192 21.0473 120.93 21.0473H111.07C108.791 21.0473 106.953 19.1923 106.953 16.9305V7.06953C106.953 4.80769 108.808 2.95266 111.07 2.95266H120.93C123.209 2.95266 125.047 4.80769 125.047 7.06953V16.9305Z" fill="black"/>
<path d="M116 6.33728C112.876 6.33728 110.321 8.87574 110.321 12C110.321 15.1243 112.859 17.679 116 17.679C119.124 17.679 121.679 15.1405 121.679 12C121.679 8.87574 119.124 6.33728 116 6.33728ZM116 15.7263C113.95 15.7263 112.274 14.0666 112.274 12.0163C112.29 9.94971 113.95 8.28994 116 8.28994C118.05 8.28994 119.726 9.94971 119.726 12C119.726 14.0503 118.05 15.7263 116 15.7263Z" fill="black"/>
<path d="M121.907 4.67749C121.533 4.67749 121.158 4.82394 120.898 5.10057C120.638 5.36092 120.475 5.73518 120.475 6.10944C120.475 6.4837 120.621 6.85796 120.898 7.11832C121.158 7.37867 121.533 7.5414 121.907 7.5414C122.281 7.5414 122.655 7.39495 122.916 7.11832C123.176 6.85796 123.339 6.4837 123.339 6.10944C123.339 5.73518 123.192 5.36092 122.916 5.10057C122.655 4.82394 122.297 4.67749 121.907 4.67749Z" fill="black"/>
</g>
<defs>
<clipPath id="clip0_1_9">
<rect width="28.0096" height="20" fill="white" transform="translate(220 2)"/>
</clipPath>
<clipPath id="clip1_1_9">
<rect width="23" height="22" fill="white" transform="translate(162)"/>
</clipPath>
<clipPath id="clip2_1_9">
<rect width="25" height="20" fill="white" transform="translate(0 2)"/>
</clipPath>
<clipPath id="clip3_1_9">
<rect width="10" height="22" fill="white" transform="translate(60)"/>
</clipPath>
<clipPath id="clip4_1_9">
<rect width="22" height="22" fill="white" transform="translate(105 1)"/>
</clipPath>
</defs>
</svg>
